<svg version="1.1" id="Layer_1" xmlns="http://www.w3.org/2000/svg" xmlns:xlink="http://www.w3.org/1999/xlink" x="0px" y="0px"
	 width="100%" viewBox="0 0 219 148" enable-background="new 0 0 219 148" xml:space="preserve">
<path fill="#FEFEFE" opacity="1.000000" stroke="none" 
	d="
M150.000000,149.000000 
	C100.033730,149.000000 50.567459,149.000000 1.050594,149.000000 
	C1.050594,99.734055 1.050594,50.468044 1.050594,1.101018 
	C73.882790,1.101018 146.765762,1.101018 219.824371,1.101018 
	C219.824371,50.332821 219.824371,99.666359 219.824371,149.000000 
	C196.801636,149.000000 173.650818,149.000000 150.000000,149.000000 
M60.483093,77.500946 
	C60.443417,87.325264 60.499386,97.151199 60.333611,106.973389 
	C60.202438,114.745605 63.559460,120.187721 70.864288,122.705551 
	C76.185333,124.539612 81.726532,125.744011 87.186615,127.163612 
	C96.248459,129.519638 104.983467,132.415787 110.450104,140.962219 
	C114.470428,134.956451 120.097664,131.839600 126.449425,130.005325 
	C133.940521,127.842033 141.602982,126.254250 149.047638,123.952721 
	C157.684494,121.282631 160.313126,117.490356 160.287430,109.190071 
	C160.203384,82.047150 160.129089,54.904186 160.033386,27.761303 
	C160.027847,26.192984 159.865646,24.625219 159.723770,22.133137 
	C150.666321,28.359989 141.414185,28.086571 132.140961,25.577662 
	C122.905670,23.079012 115.441338,17.842018 110.515076,9.283939 
	C97.994026,26.885410 78.481682,31.905796 60.483315,21.842180 
	C60.483315,40.320015 60.483315,58.410374 60.483093,77.500946 
z"/>
<path fill="#0E3F76" opacity="1.000000" stroke="none" 
	d="
M60.483204,77.000839 
	C60.483315,58.410374 60.483315,40.320015 60.483315,21.842180 
	C78.481682,31.905796 97.994026,26.885410 110.515076,9.283939 
	C115.441338,17.842018 122.905670,23.079012 132.140961,25.577662 
	C141.414185,28.086571 150.666321,28.359989 159.723770,22.133137 
	C159.865646,24.625219 160.027847,26.192984 160.033386,27.761303 
	C160.129089,54.904186 160.203384,82.047150 160.287430,109.190071 
	C160.313126,117.490356 157.684494,121.282631 149.047638,123.952721 
	C141.602982,126.254250 133.940521,127.842033 126.449425,130.005325 
	C120.097664,131.839600 114.470428,134.956451 110.450104,140.962219 
	C104.983467,132.415787 96.248459,129.519638 87.186615,127.163612 
	C81.726532,125.744011 76.185333,124.539612 70.864288,122.705551 
	C63.559460,120.187721 60.202438,114.745605 60.333611,106.973389 
	C60.499386,97.151199 60.443417,87.325264 60.483204,77.000839 
M135.036026,57.727489 
	C135.234619,57.321884 135.433212,56.916275 135.508011,55.805485 
	C136.052109,54.212738 136.596207,52.619987 136.951370,51.580292 
	C135.425903,50.406219 133.702606,49.079895 132.115479,47.858360 
	C130.784439,48.922810 128.926834,50.408352 127.331284,51.684341 
	C127.815720,52.964302 128.537247,54.870678 129.197723,56.615795 
	C130.799164,56.799763 132.774582,57.026695 135.036026,57.727489 
M129.845688,42.063030 
	C131.810760,42.063030 133.775833,42.063030 134.995193,42.063030 
	C135.685867,39.939358 136.396225,37.755100 137.012970,35.858734 
	C135.572113,34.799042 133.750885,33.459618 132.220490,32.334084 
	C130.790634,33.416847 128.949661,34.810951 127.242348,36.103828 
	C127.623055,37.569771 128.159134,39.633953 128.389343,41.961620 
	C128.454147,42.191193 128.518967,42.420761 128.583771,42.650333 
	C128.762085,42.476631 128.940414,42.302929 129.845688,42.063030 
M154.653580,61.747868 
	C154.067627,61.500641 153.481979,61.037971 152.895660,61.037113 
	C124.428001,60.995380 95.960266,60.985588 67.492699,61.047112 
	C66.958771,61.048264 66.426788,61.947639 65.252609,63.093288 
	C65.074913,77.901176 64.805435,92.708824 64.766052,107.517082 
	C64.750923,113.204765 67.876068,117.105614 73.204666,118.818466 
	C78.408150,120.491089 83.745239,121.775276 89.068451,123.041855 
	C97.272202,124.993820 105.190224,127.383553 110.389290,134.964737 
	C115.570236,127.928795 123.097336,125.806679 130.756058,123.901253 
	C136.550858,122.459557 142.442413,121.282219 148.079544,119.365524 
	C154.065643,117.330177 156.000534,113.960609 155.996613,107.588020 
	C155.988388,94.260284 155.994873,80.932320 155.897446,67.605156 
	C155.884811,65.876961 155.293259,64.153000 154.653580,61.747868 
M106.989174,28.233971 
	C97.716080,33.549034 95.370560,45.320641 98.159927,55.066093 
	C98.521500,56.329380 100.974167,57.815147 102.448799,57.805168 
	C111.787926,57.741966 121.805145,49.630177 122.940468,40.454597 
	C123.496269,35.962627 123.399666,29.600201 120.748260,27.064756 
	C118.609055,25.019096 112.194290,27.444534 106.989174,28.233971 
M148.991333,31.969913 
	C147.476822,33.480263 145.962311,34.990612 145.067078,35.883396 
	C145.568130,38.132545 146.049301,40.292450 146.369934,41.731697 
	C148.477463,41.731697 150.870163,41.731697 152.643570,41.731697 
	C153.253677,39.798733 153.950821,37.589935 154.317535,36.428116 
	C152.544266,34.595947 151.029251,33.030617 148.991333,31.969913 
M87.772812,32.698086 
	C86.363235,33.883663 84.953651,35.069237 84.044518,35.833900 
	C84.592415,37.917633 85.158234,40.069504 85.595268,41.731583 
	C87.507629,41.731583 89.920959,41.731583 91.811142,41.731583 
	C92.369522,39.883244 93.043915,37.650883 93.532364,36.034008 
	C91.687202,34.687790 89.865990,33.359051 87.772812,32.698086 
M74.137932,38.503433 
	C75.064804,37.660782 75.991684,36.818134 76.475807,36.378002 
	C74.493019,34.742649 72.743988,33.300095 71.309502,32.116970 
	C69.674591,33.407661 67.878532,34.825573 66.209320,36.143337 
	C66.919678,37.808376 67.724442,39.694683 68.264160,40.959755 
	C70.604523,41.557732 72.622040,42.073223 75.048714,42.693256 
	C74.757416,41.506302 74.474953,40.355316 74.137932,38.503433 
M145.324997,57.373840 
	C147.870667,57.233360 150.416336,57.092880 152.474426,56.979305 
	C153.200653,55.028637 153.945602,53.027702 154.393143,51.825615 
	C152.648666,50.344303 150.898712,48.858349 149.664963,47.810719 
	C148.048233,49.054970 146.187302,50.487156 144.950485,51.439011 
	C145.219070,53.063553 145.524445,54.910614 145.324997,57.373840 
M73.262253,50.518425 
	C72.662834,49.301159 72.063423,48.083893 71.775909,47.500031 
	C69.481667,49.133492 67.362900,50.642014 65.999443,51.612774 
	C66.923134,53.586586 67.776711,55.410564 68.508118,56.973495 
	C70.266518,56.973495 72.538254,56.973495 74.003616,56.973495 
	C74.774651,54.966381 75.554214,52.937035 76.344635,50.879459 
	C75.595947,50.841343 74.774704,50.799534 73.262253,50.518425 
M83.405266,51.936611 
	C84.309601,53.775356 85.213936,55.614098 85.973717,57.158916 
	C87.648842,57.073624 89.830177,56.962551 91.438316,56.880665 
	C92.266235,54.859478 93.043106,52.962910 93.520905,51.796478 
	C91.768333,50.325436 89.983475,48.827290 89.051712,48.045200 
	C87.035049,49.146755 85.138878,50.182495 83.405266,51.936611 
z"/>
<path fill="#FCF8F8" opacity="1.000000" stroke="none" 
	d="
M154.969864,62.427078 
	C155.293259,64.153000 155.884811,65.876961 155.897446,67.605156 
	C155.994873,80.932320 155.988388,94.260284 155.996613,107.588020 
	C156.000534,113.960609 154.065643,117.330177 148.079544,119.365524 
	C142.442413,121.282219 136.550858,122.459557 130.756058,123.901253 
	C123.097336,125.806679 115.570236,127.928795 110.389290,134.964737 
	C105.190224,127.383553 97.272202,124.993820 89.068451,123.041855 
	C83.745239,121.775276 78.408150,120.491089 73.204666,118.818466 
	C67.876068,117.105614 64.750923,113.204765 64.766052,107.517082 
	C64.805435,92.708824 65.074913,77.901176 66.038322,62.869785 
	C77.451118,62.659096 88.078316,62.708790 98.705261,62.676579 
	C117.460205,62.619732 136.214996,62.512955 154.969864,62.427078 
M102.511574,67.117851 
	C102.380013,67.421906 102.248444,67.725952 102.013222,68.509697 
	C102.013222,68.509697 102.138695,68.984146 101.994514,69.787315 
	C103.214622,74.343285 105.642754,78.400085 105.254189,83.597252 
	C104.636124,91.864052 105.281738,100.218658 105.115410,108.530579 
	C105.073807,110.609665 103.461731,112.677521 103.501678,114.732460 
	C103.542885,116.851982 104.089737,119.859642 105.534920,120.857796 
	C108.147812,122.662437 111.593391,123.261452 114.237144,124.202278 
	C113.442101,114.233963 112.655518,104.371742 111.795082,93.583588 
	C114.633255,94.261375 116.060677,94.432739 117.345161,94.955399 
	C118.703438,95.508087 119.925621,96.395264 121.850067,97.508041 
	C121.850067,93.072128 121.850067,89.628716 121.850067,85.482170 
	C118.757233,86.078003 115.931671,86.622345 112.967720,87.193344 
	C112.967720,82.466858 112.967720,78.401878 112.967720,74.336891 
	C113.365395,73.968651 113.763069,73.600403 114.160751,73.232162 
	C115.761887,74.535767 117.270294,75.983574 118.996124,77.093246 
	C120.185127,77.857742 121.675285,78.153862 123.618149,78.744293 
	C123.965965,78.174133 124.313774,77.603973 124.894501,76.163933 
	C124.853500,73.768082 124.812500,71.372238 124.837952,68.152702 
	C123.843163,67.830467 122.850868,67.239113 121.853188,67.229881 
	C115.586288,67.171890 109.318192,67.243469 102.511574,67.117851 
M138.045349,106.054047 
	C138.089172,95.712349 138.132980,85.370659 138.796509,74.637611 
	C139.745224,72.700340 140.693924,70.763077 141.876648,68.347977 
	C136.241135,68.347977 132.016525,68.347977 127.736832,68.347977 
	C131.227783,84.743813 131.142395,100.845428 127.692375,117.655556 
	C134.006729,115.925255 139.455154,114.571854 144.801178,112.892410 
	C146.699738,112.295967 149.672699,111.111961 149.869659,109.841774 
	C150.515884,105.674522 150.112503,101.344505 150.112503,96.935219 
	C147.936462,97.035194 146.474152,97.102379 144.962234,97.171844 
	C144.029602,101.576042 145.427200,107.474442 138.045349,106.054047 
M73.965874,75.926529 
	C73.881805,85.936157 73.797745,95.945778 72.987869,106.016266 
	C69.504143,106.887123 69.849701,109.198303 70.723122,111.857590 
	C74.939041,112.852409 79.076248,113.828644 83.436920,114.857620 
	C82.288979,107.303398 81.204178,100.164612 80.119370,93.025826 
	C80.652855,92.895081 81.186340,92.764336 81.719826,92.633591 
	C83.937851,98.919525 86.474335,105.116341 88.266495,111.521431 
	C89.548615,116.103645 91.973976,118.125046 97.089668,117.850456 
	C97.089668,104.728195 97.057076,91.760620 97.132141,78.793671 
	C97.141228,77.224571 97.660103,75.639854 98.069656,74.096054 
	C98.657089,71.881729 99.361298,69.698380 100.067917,67.326385 
	C95.054146,67.717583 91.050682,68.029945 85.817673,68.438248 
	C87.388634,71.378639 89.141190,73.522438 89.664734,75.933136 
	C90.286880,78.797897 89.860451,81.892067 89.873505,84.886894 
	C89.884972,87.517502 89.875900,90.148193 89.875900,92.778839 
	C89.606995,92.783798 89.338097,92.788750 89.069191,92.793701 
	C86.254509,84.194626 83.439827,75.595558 80.509735,66.643906 
	C77.083549,67.243210 74.088081,67.767166 69.483612,68.572563 
	C71.372665,71.271584 72.673035,73.129501 73.965874,75.926529 
z"/>
<path fill="#F1F2F5" opacity="1.000000" stroke="none" 
	d="
M107.332748,28.060196 
	C112.194290,27.444534 118.609055,25.019096 120.748260,27.064756 
	C123.399666,29.600201 123.496269,35.962627 122.940468,40.454597 
	C121.805145,49.630177 111.787926,57.741966 102.448799,57.805168 
	C100.974167,57.815147 98.521500,56.329380 98.159927,55.066093 
	C95.370560,45.320641 97.716080,33.549034 107.332748,28.060196 
z"/>
<path fill="#002C6C" opacity="1.000000" stroke="none" 
	d="
M154.811722,62.087471 
	C136.214996,62.512955 117.460205,62.619732 98.705261,62.676579 
	C88.078316,62.708790 77.451118,62.659096 66.358963,62.537102 
	C66.426788,61.947639 66.958771,61.048264 67.492699,61.047112 
	C95.960266,60.985588 124.428001,60.995380 152.895660,61.037113 
	C153.481979,61.037971 154.067627,61.500641 154.811722,62.087471 
z"/>
<path fill="#DADEE5" opacity="1.000000" stroke="none" 
	d="
M149.252792,31.717600 
	C151.029251,33.030617 152.544266,34.595947 154.317535,36.428116 
	C153.950821,37.589935 153.253677,39.798733 152.643570,41.731697 
	C150.870163,41.731697 148.477463,41.731697 146.369934,41.731697 
	C146.049301,40.292450 145.568130,38.132545 145.067078,35.883396 
	C145.962311,34.990612 147.476822,33.480263 149.252792,31.717600 
z"/>
<path fill="#DEE2E9" opacity="1.000000" stroke="none" 
	d="
M87.908798,32.364197 
	C89.865990,33.359051 91.687202,34.687790 93.532364,36.034008 
	C93.043915,37.650883 92.369522,39.883244 91.811142,41.731583 
	C89.920959,41.731583 87.507629,41.731583 85.595268,41.731583 
	C85.158234,40.069504 84.592415,37.917633 84.044518,35.833900 
	C84.953651,35.069237 86.363235,33.883663 87.908798,32.364197 
z"/>
<path fill="#E1E4EA" opacity="1.000000" stroke="none" 
	d="
M74.165207,38.853882 
	C74.474953,40.355316 74.757416,41.506302 75.048714,42.693256 
	C72.622040,42.073223 70.604523,41.557732 68.264160,40.959755 
	C67.724442,39.694683 66.919678,37.808376 66.209320,36.143337 
	C67.878532,34.825573 69.674591,33.407661 71.309502,32.116970 
	C72.743988,33.300095 74.493019,34.742649 76.475807,36.378002 
	C75.991684,36.818134 75.064804,37.660782 74.165207,38.853882 
z"/>
<path fill="#DEE2E9" opacity="1.000000" stroke="none" 
	d="
M128.695206,41.698135 
	C128.159134,39.633953 127.623055,37.569771 127.242348,36.103828 
	C128.949661,34.810951 130.790634,33.416847 132.220490,32.334084 
	C133.750885,33.459618 135.572113,34.799042 137.012970,35.858734 
	C136.396225,37.755100 135.685867,39.939358 134.995193,42.063030 
	C133.775833,42.063030 131.810760,42.063030 129.376938,41.987759 
	C128.908188,41.912487 128.695206,41.698135 128.695206,41.698135 
z"/>
<path fill="#E9ECF0" opacity="1.000000" stroke="none" 
	d="
M145.577393,57.065758 
	C145.524445,54.910614 145.219070,53.063553 144.950485,51.439011 
	C146.187302,50.487156 148.048233,49.054970 149.664963,47.810719 
	C150.898712,48.858349 152.648666,50.344303 154.393143,51.825615 
	C153.945602,53.027702 153.200653,55.028637 152.474426,56.979305 
	C150.416336,57.092880 147.870667,57.233360 145.577393,57.065758 
z"/>
<path fill="#EAECF1" opacity="1.000000" stroke="none" 
	d="
M73.607857,50.638077 
	C74.774704,50.799534 75.595947,50.841343 76.344635,50.879459 
	C75.554214,52.937035 74.774651,54.966381 74.003616,56.973495 
	C72.538254,56.973495 70.266518,56.973495 68.508118,56.973495 
	C67.776711,55.410564 66.923134,53.586586 65.999443,51.612774 
	C67.362900,50.642014 69.481667,49.133492 71.775909,47.500031 
	C72.063423,48.083893 72.662834,49.301159 73.607857,50.638077 
z"/>
<path fill="#EAECF0" opacity="1.000000" stroke="none" 
	d="
M83.323990,51.577423 
	C85.138878,50.182495 87.035049,49.146755 89.051712,48.045200 
	C89.983475,48.827290 91.768333,50.325436 93.520905,51.796478 
	C93.043106,52.962910 92.266235,54.859478 91.438316,56.880665 
	C89.830177,56.962551 87.648842,57.073624 85.973717,57.158916 
	C85.213936,55.614098 84.309601,53.775356 83.323990,51.577423 
z"/>
<path fill="#F1F2F5" opacity="1.000000" stroke="none" 
	d="
M134.750000,57.253624 
	C132.774582,57.026695 130.799164,56.799763 129.197723,56.615795 
	C128.537247,54.870678 127.815720,52.964302 127.331284,51.684341 
	C128.926834,50.408352 130.784439,48.922810 132.115479,47.858360 
	C133.702606,49.079895 135.425903,50.406219 136.951370,51.580292 
	C136.596207,52.619987 136.052109,54.212738 135.340729,56.333462 
	C135.032288,56.992168 134.891144,57.122898 134.750000,57.253624 
z"/>
<path fill="#F1F2F5" opacity="1.000000" stroke="none" 
	d="
M135.402618,56.686050 
	C135.433212,56.916275 135.234619,57.321884 134.893005,57.490555 
	C134.891144,57.122898 135.032288,56.992168 135.402618,56.686050 
z"/>
<path fill="#DEE2E9" opacity="1.000000" stroke="none" 
	d="
M129.013458,42.020855 
	C128.940414,42.302929 128.762085,42.476631 128.583771,42.650333 
	C128.518967,42.420761 128.454147,42.191193 128.542267,41.829880 
	C128.695206,41.698135 128.908188,41.912487 129.013458,42.020855 
z"/>
<path fill="#DB262C" opacity="1.000000" stroke="none" 
	d="
M73.973404,74.987427 
	C72.673035,73.129501 71.372665,71.271584 69.483612,68.572563 
	C74.088081,67.767166 77.083549,67.243210 80.509735,66.643906 
	C83.439827,75.595558 86.254509,84.194626 89.069191,92.793701 
	C89.338097,92.788750 89.606995,92.783798 89.875900,92.778839 
	C89.875900,90.148193 89.884972,87.517502 89.873505,84.886894 
	C89.860451,81.892067 90.286880,78.797897 89.664734,75.933136 
	C89.141190,73.522438 87.388634,71.378639 85.817673,68.438248 
	C91.050682,68.029945 95.054146,67.717583 100.067917,67.326385 
	C99.361298,69.698380 98.657089,71.881729 98.069656,74.096054 
	C97.660103,75.639854 97.141228,77.224571 97.132141,78.793671 
	C97.057076,91.760620 97.089668,104.728195 97.089668,117.850456 
	C91.973976,118.125046 89.548615,116.103645 88.266495,111.521431 
	C86.474335,105.116341 83.937851,98.919525 81.719826,92.633591 
	C81.186340,92.764336 80.652855,92.895081 80.119370,93.025826 
	C81.204178,100.164612 82.288979,107.303398 83.436920,114.857620 
	C79.076248,113.828644 74.939041,112.852409 70.723122,111.857590 
	C69.849701,109.198303 69.504143,106.887123 73.714859,105.763138 
	C74.631050,97.052864 74.882729,88.596275 74.957321,80.138123 
	C74.972435,78.424248 74.318756,76.704475 73.973404,74.987427 
z"/>
<path fill="#DB282D" opacity="1.000000" stroke="none" 
	d="
M123.030838,78.659302 
	C121.675285,78.153862 120.185127,77.857742 118.996124,77.093246 
	C117.270294,75.983574 115.761887,74.535767 114.160751,73.232162 
	C113.763069,73.600403 113.365395,73.968651 112.967720,74.336891 
	C112.967720,78.401878 112.967720,82.466858 112.967720,87.193344 
	C115.931671,86.622345 118.757233,86.078003 121.850067,85.482170 
	C121.850067,89.628716 121.850067,93.072128 121.850067,97.508041 
	C119.925621,96.395264 118.703438,95.508087 117.345161,94.955399 
	C116.060677,94.432739 114.633255,94.261375 111.795082,93.583588 
	C112.655518,104.371742 113.442101,114.233963 114.237144,124.202278 
	C111.593391,123.261452 108.147812,122.662437 105.534920,120.857796 
	C104.089737,119.859642 103.542885,116.851982 103.501678,114.732460 
	C103.461731,112.677521 105.073807,110.609665 105.115410,108.530579 
	C105.281738,100.218658 104.636124,91.864052 105.254189,83.597252 
	C105.642754,78.400085 103.214622,74.343285 102.526093,69.393112 
	C110.295616,68.991402 117.533554,68.983894 124.771500,68.976387 
	C124.812500,71.372238 124.853500,73.768082 124.518066,76.641876 
	C123.771362,77.632980 123.401100,78.146141 123.030838,78.659302 
z"/>
<path fill="#DA2329" opacity="1.000000" stroke="none" 
	d="
M138.056641,106.990036 
	C145.427200,107.474442 144.029602,101.576042 144.962234,97.171844 
	C146.474152,97.102379 147.936462,97.035194 150.112503,96.935219 
	C150.112503,101.344505 150.515884,105.674522 149.869659,109.841774 
	C149.672699,111.111961 146.699738,112.295967 144.801178,112.892410 
	C139.455154,114.571854 134.006729,115.925255 127.692375,117.655556 
	C131.142395,100.845428 131.227783,84.743813 127.736832,68.347977 
	C132.016525,68.347977 136.241135,68.347977 141.876648,68.347977 
	C140.693924,70.763077 139.745224,72.700340 138.141876,75.078720 
	C137.324036,84.967194 137.126404,94.414268 137.046463,103.862350 
	C137.037674,104.901985 137.703629,105.947334 138.056641,106.990036 
z"/>
<path fill="#D91219" opacity="1.000000" stroke="none" 
	d="
M124.804726,68.564545 
	C117.533554,68.983894 110.295616,68.991402 102.598183,68.991531 
	C102.138695,68.984146 102.013222,68.509697 102.259491,68.193573 
	C102.779152,67.758331 102.960724,67.556580 103.050491,67.272194 
	C109.318192,67.243469 115.586288,67.171890 121.853188,67.229881 
	C122.850868,67.239113 123.843163,67.830467 124.804726,68.564545 
z"/>
<path fill="#D70000" opacity="1.000000" stroke="none" 
	d="
M138.050995,106.522041 
	C137.703629,105.947334 137.037674,104.901985 137.046463,103.862350 
	C137.126404,94.414268 137.324036,84.967194 137.832001,75.274391 
	C138.132980,85.370659 138.089172,95.712349 138.050995,106.522041 
z"/>
<path fill="#D70000" opacity="1.000000" stroke="none" 
	d="
M73.969635,75.456978 
	C74.318756,76.704475 74.972435,78.424248 74.957321,80.138123 
	C74.882729,88.596275 74.631050,97.052864 74.077759,105.732712 
	C73.797745,95.945778 73.881805,85.936157 73.969635,75.456978 
z"/>
<path fill="#D91219" opacity="1.000000" stroke="none" 
	d="
M123.324493,78.701797 
	C123.401100,78.146141 123.771362,77.632980 124.401604,77.076828 
	C124.313774,77.603973 123.965965,78.174133 123.324493,78.701797 
z"/>
<path fill="#DF4E51" opacity="1.000000" stroke="none" 
	d="
M102.781036,67.195023 
	C102.960724,67.556580 102.779152,67.758331 102.311325,67.953728 
	C102.248444,67.725952 102.380013,67.421906 102.781036,67.195023 
z"/>
</svg>